<?xml version="1.0" encoding="UTF-8"?><svg id="Layer_1" xmlns="http://www.w3.org/2000/svg" viewBox="0 0 112.94 126.98"><defs><style>.cls-1{fill:#999;stroke:#000;stroke-linecap:round;stroke-linejoin:round;stroke-width:2px;}</style></defs><path class="cls-1" d="m54.03,55.73l-17.75,38.12c-.88,1.62-2.75,3-4.62,3-5.38,0-6.38-5-4.38-8.12l15.5-33.12L25.03,21.85l.12.12c-1.62-2.38-1-5.5,1.25-7,2.62-1.75,5.88-.62,7.5,1.88l20.12,38.88Zm16-34.38l-13.75,29.5-5.88-11.62,10.25-22.38c1.12-2,2.75-2.88,4.88-2.88,4.88,0,5.88,4.25,4.5,7.38Z"/><path class="cls-1" d="m67.57,95.58l-6.05,4.74v-18.73c0-8.09,6.49-14.72,14.5-14.72,6.7,0,12.39,4.66,14.21,11.08l-5.61,4.45c-.44-5.32-4.08-9.47-8.6-9.47s-8.45,3.94-8.45,8.67v13.99Zm22.96-14.36v18.73c0,8.16-6.41,14.65-14.5,14.65-6.71,0-12.24-4.66-14.07-11l5.54-4.45c.44,5.32,4.15,9.4,8.53,9.4,4.74,0,8.53-3.86,8.53-8.6v-13.99l5.98-4.74Z"/><path d="m78.28,5c11.68,0,22.63,12.28,23.9,26.81l5.63,64.24c.7,7.94-1.52,15.35-6.08,20.32-3.36,3.67-7.63,5.61-12.33,5.61h-54.75c-11.68,0-22.63-12.28-23.9-26.81L5.13,30.93c-.7-7.94,1.52-15.35,6.08-20.32,3.36-3.67,7.63-5.61,12.33-5.61h54.75m0-5H23.53C9.16,0-1.37,14.12.14,31.37l5.63,64.24c1.51,17.25,14.51,31.37,28.88,31.37h54.75c14.37,0,24.9-14.12,23.39-31.37l-5.63-64.24c-1.51-17.25-14.51-31.37-28.88-31.37h0Z"/></svg>